<svg width="944" height="36" viewBox="0 0 944 36" fill="none" xmlns="http://www.w3.org/2000/svg">
<g opacity="0.8">
<g style="mix-blend-mode:luminosity">
<path d="M61.3614 9.99997C56.58 9.99997 53.1325 13.1015 53.1325 17.7538C53.1325 22.4061 57.0131 25.5077 61.7945 25.5077C64.6833 25.5077 67.2299 24.3704 68.8064 22.4535L65.4931 20.5495C64.6183 21.5015 63.2887 22.0572 61.7945 22.0572C59.7199 22.0572 57.9572 20.9803 57.3032 19.2572H69.4387C69.534 18.7747 69.5903 18.2751 69.5903 17.7495C69.5903 13.1015 66.1428 9.99997 61.3614 9.99997ZM57.2643 16.2461C57.8056 14.5274 59.2868 13.4461 61.3571 13.4461C63.4316 13.4461 64.9128 14.5274 65.4498 16.2461H57.2643ZM107.997 9.99997C103.216 9.99997 99.7686 13.1015 99.7686 17.7538C99.7686 22.4061 103.649 25.5077 108.431 25.5077C111.319 25.5077 113.866 24.3704 115.442 22.4535L112.129 20.5495C111.254 21.5015 109.925 22.0572 108.431 22.0572C106.356 22.0572 104.593 20.9803 103.939 19.2572H116.075C116.17 18.7747 116.226 18.2751 116.226 17.7495C116.226 13.1015 112.779 9.99997 107.997 9.99997ZM103.905 16.2461C104.446 14.5274 105.927 13.4461 107.997 13.4461C110.072 13.4461 111.553 14.5274 112.09 16.2461H103.905ZM87.0008 17.7538C87.0008 20.3384 88.6986 22.0615 91.3318 22.0615C93.1162 22.0615 94.4544 21.256 95.1431 19.9421L98.4693 21.8504C97.092 24.1335 94.5108 25.5077 91.3318 25.5077C86.5461 25.5077 83.1029 22.4061 83.1029 17.7538C83.1029 13.1015 86.5504 9.99997 91.3318 9.99997C94.5108 9.99997 97.0877 11.3741 98.4693 13.6572L95.1431 15.5655C94.4544 14.2517 93.1162 13.4461 91.3318 13.4461C88.7029 13.4461 87.0008 15.1692 87.0008 17.7538ZM122.723 5.26151V25.0769H118.825V5.26151H122.723ZM16.2802 3.10767L32.2831 30.6769H0.277161L16.2802 3.10767ZM56.2898 5.26151L44.2886 25.9384L32.2875 5.26151H36.7874L44.2886 18.1846L51.7899 5.26151H56.2898ZM81.8036 10.4307V14.6049C81.3705 14.48 80.9114 14.3938 80.4177 14.3938C77.9014 14.3938 76.0867 16.1169 76.0867 18.7015V25.0769H72.1889V10.4307H76.0867V14.3938C76.0867 12.2055 78.6464 10.4307 81.8036 10.4307Z" fill="#B5C0F8"/>
</g>
<g style="mix-blend-mode:luminosity">
<path fill-rule="evenodd" clip-rule="evenodd" d="M204.395 12.0846L204.481 13.6232C205.465 12.4332 206.755 11.8382 208.353 11.8382C211.121 11.8382 212.53 13.4258 212.579 16.601V25.3986H209.594V16.7732C209.594 15.9283 209.412 15.3032 209.048 14.8965C208.683 14.4905 208.087 14.2875 207.26 14.2875C206.055 14.2875 205.158 14.8335 204.569 15.9241V25.3986H201.583V12.0846H204.397H204.395ZM221.476 25.645C219.585 25.645 218.05 25.0486 216.875 23.8551C215.699 22.6616 215.111 21.0719 215.111 19.0867V18.7178C215.111 17.3892 215.367 16.2013 215.879 15.1555C216.391 14.1097 217.111 13.2956 218.036 12.7125C218.962 12.1308 219.994 11.8396 221.133 11.8396C222.943 11.8396 224.342 12.4178 225.329 13.5742C226.317 14.7313 226.81 16.3672 226.81 18.484V19.6901H218.122C218.213 20.7891 218.578 21.6585 219.222 22.2983C219.865 22.9381 220.674 23.258 221.649 23.258C223.017 23.258 224.131 22.705 224.991 21.5969L226.601 23.1355C226.068 23.9307 225.358 24.5481 224.469 24.987C223.58 25.4259 222.583 25.645 221.477 25.645H221.476ZM221.121 14.2392C220.301 14.2392 219.64 14.5262 219.136 15.1002C218.632 15.6742 218.311 16.4743 218.171 17.4998H223.861V17.2779C223.795 16.2769 223.529 15.5209 223.062 15.0078C222.595 14.4954 221.948 14.2392 221.121 14.2392ZM232.867 8.8492V12.0853H235.215V14.3001H232.867V21.732C232.867 22.2402 232.968 22.607 233.169 22.8331C233.369 23.0585 233.728 23.1712 234.244 23.1712C234.596 23.1702 234.946 23.1289 235.288 23.048V25.3615C234.609 25.5505 233.953 25.6443 233.322 25.6443C231.029 25.6443 229.882 24.3773 229.882 21.8426V14.2994H227.693V12.0846H229.88V8.8485H232.866L232.867 8.8492ZM240.671 25.3993H237.685V6.4993H240.671V25.3993ZM247.098 25.3993H244.111V12.0853H247.098V25.3993ZM243.927 8.6273C243.927 8.1688 244.072 7.7873 244.363 7.4835C244.654 7.1804 245.07 7.0285 245.61 7.0285C246.151 7.0285 246.569 7.1804 246.864 7.4835C247.159 7.7873 247.306 8.1688 247.306 8.628C247.306 9.0788 247.159 9.454 246.864 9.7536C246.569 10.0532 246.151 10.203 245.61 10.203C245.07 10.203 244.654 10.0532 244.363 9.7536C244.072 9.4547 243.927 9.0788 243.927 8.628V8.6273ZM251.398 25.3993V14.2994H249.371V12.0846H251.398V10.8666C251.398 9.3896 251.808 8.25 252.627 7.4457C253.446 6.6421 254.593 6.2403 256.067 6.2403C256.592 6.2403 257.149 6.3138 257.739 6.4615L257.665 8.7995C257.288 8.72962 256.906 8.6968 256.522 8.7015C255.097 8.7015 254.384 9.4351 254.384 10.9037V12.0846H257.087V14.2994H254.384V25.3986H251.398V25.3993ZM263.919 21.1174L266.623 12.0853H269.805L264.522 27.4174C263.711 29.6567 262.335 30.7767 260.393 30.7767C259.959 30.7767 259.479 30.7025 258.955 30.5548V28.2413L259.521 28.2784C260.274 28.2784 260.841 28.1412 261.223 27.8661C261.603 27.5917 261.904 27.1304 262.126 26.4822L262.555 25.3377L257.886 12.0853H261.106L263.919 21.1174Z" fill="#B5C0F8"/>
<path d="M186.541 12.8945L186.531 12.8903C186.525 12.8882 186.52 12.8861 186.515 12.8812C186.507 12.8726 186.501 12.8622 186.497 12.8509C186.494 12.8397 186.493 12.8277 186.495 12.8161L187.037 9.50791L189.577 12.0461L186.935 13.1689C186.928 13.1719 186.92 13.1733 186.912 13.1731H186.902C186.898 13.171 186.895 13.1682 186.888 13.1612C186.789 13.0519 186.672 12.9615 186.541 12.8945ZM190.225 12.6929L192.941 15.4061C193.505 15.9703 193.787 16.2517 193.89 16.5779C193.906 16.6262 193.918 16.6745 193.928 16.7242L187.438 13.9781C187.434 13.9767 187.431 13.9753 187.427 13.9739C187.401 13.9634 187.371 13.9515 187.371 13.9249C187.371 13.8983 187.402 13.8857 187.428 13.8752L187.436 13.8717L190.225 12.6929ZM193.817 17.595C193.677 17.8582 193.404 18.1312 192.941 18.5939L189.879 21.6522L185.919 20.8283L185.898 20.8241C185.863 20.8185 185.826 20.8122 185.826 20.7807C185.811 20.6175 185.762 20.4591 185.684 20.3155C185.605 20.1718 185.497 20.0459 185.367 19.9456C185.351 19.9295 185.355 19.9043 185.36 19.8812C185.36 19.8777 185.36 19.8742 185.361 19.8714L186.106 15.3032L186.109 15.2878C186.113 15.2528 186.12 15.2122 186.151 15.2122C186.311 15.1924 186.465 15.141 186.604 15.0611C186.744 14.9812 186.866 14.8743 186.964 14.7467C186.97 14.7397 186.974 14.732 186.983 14.7278C187.005 14.7173 187.032 14.7278 187.055 14.7376L193.817 17.595H193.817ZM189.175 22.3557L184.14 27.3859L185.002 22.0939L185.003 22.0869C185.004 22.0799 185.006 22.0729 185.008 22.0666C185.015 22.0498 185.033 22.0428 185.05 22.0358L185.059 22.0323C185.247 21.9519 185.414 21.8278 185.546 21.6704C185.563 21.6508 185.583 21.6319 185.609 21.6284C185.616 21.6273 185.622 21.6273 185.629 21.6284L189.175 22.3564L189.175 22.3557ZM183.074 28.4506L182.507 29.0176L176.232 19.9582C176.23 19.9549 176.228 19.9516 176.225 19.9484C176.216 19.9351 176.205 19.9218 176.207 19.9064C176.207 19.8952 176.215 19.8854 176.223 19.877L176.23 19.8679C176.248 19.8399 176.265 19.8119 176.282 19.7818L176.296 19.7573L176.298 19.7552C176.308 19.7384 176.317 19.7223 176.334 19.7132C176.349 19.7062 176.369 19.709 176.385 19.7125L183.337 21.1447C183.356 21.1477 183.374 21.1557 183.39 21.1678C183.399 21.1769 183.401 21.1867 183.403 21.1979C183.452 21.3812 183.542 21.5508 183.667 21.6935C183.792 21.8362 183.948 21.948 184.123 22.0204C184.143 22.0302 184.135 22.0519 184.125 22.075C184.121 22.0851 184.117 22.0957 184.115 22.1065C184.027 22.6385 183.276 27.2151 183.074 28.4506ZM181.889 29.6343C181.471 30.048 181.224 30.2671 180.945 30.3553C180.67 30.4422 180.375 30.4422 180.1 30.3553C179.774 30.2517 179.491 29.9703 178.927 29.4061L172.626 23.111L174.272 20.5609C174.28 20.5483 174.287 20.5371 174.3 20.528C174.317 20.5154 174.343 20.521 174.364 20.528C174.741 20.6419 175.147 20.6213 175.511 20.4699C175.53 20.4629 175.549 20.458 175.564 20.4713C175.571 20.478 175.578 20.4855 175.583 20.4937L181.889 29.635V29.6343ZM172.018 22.5041L170.573 21.06L173.427 19.8434C173.435 19.8402 173.443 19.8386 173.451 19.8385C173.474 19.8385 173.488 19.8623 173.501 19.884C173.53 19.9281 173.56 19.9711 173.592 20.0128L173.601 20.024C173.61 20.0359 173.604 20.0478 173.596 20.059L172.019 22.5041H172.018ZM169.933 20.4209L168.104 18.5939C167.793 18.2831 167.568 18.0577 167.411 17.8638L172.971 19.016C172.978 19.0173 172.985 19.0185 172.992 19.0195C173.027 19.0251 173.065 19.0314 173.065 19.0636C173.065 19.0986 173.023 19.1147 172.988 19.128L172.972 19.135L169.933 20.4209ZM167.091 16.9244C167.098 16.8067 167.119 16.6903 167.154 16.5779C167.258 16.2517 167.54 15.9703 168.104 15.4061L170.445 13.0681C171.522 14.6304 172.603 16.1907 173.686 17.749C173.705 17.7742 173.726 17.8022 173.704 17.8232C173.602 17.9359 173.5 18.0591 173.427 18.1928C173.42 18.21 173.408 18.2249 173.392 18.2362C173.383 18.2418 173.374 18.2397 173.363 18.2376H173.362L167.091 16.9237V16.9244ZM171.071 12.4423L174.216 9.29861C174.513 9.42811 175.59 9.88241 176.552 10.2884C177.281 10.5964 177.945 10.8764 178.154 10.9674C178.175 10.9758 178.194 10.9842 178.203 11.0052C178.208 11.0178 178.205 11.0339 178.203 11.0472C178.153 11.2741 178.16 11.5099 178.224 11.7332C178.288 11.9566 178.407 12.1605 178.569 12.3268C178.59 12.3478 178.569 12.3779 178.551 12.4038L178.541 12.4185L175.346 17.3626C175.338 17.3766 175.33 17.3885 175.316 17.3976C175.299 17.4081 175.275 17.4032 175.256 17.3983C175.131 17.3658 175.004 17.3484 174.875 17.3465C174.76 17.3465 174.635 17.3675 174.509 17.3906H174.509C174.495 17.3927 174.482 17.3955 174.471 17.3871C174.458 17.377 174.448 17.3649 174.439 17.3514L171.07 12.4423H171.071ZM174.853 8.66371L178.927 4.59391C179.491 4.03041 179.774 3.74831 180.1 3.64541C180.375 3.55855 180.67 3.55855 180.945 3.64541C181.272 3.74831 181.554 4.03041 182.118 4.59391L183.001 5.47591L180.104 9.95871C180.096 9.97176 180.087 9.9832 180.075 9.99231C180.057 10.0042 180.033 9.99931 180.012 9.99231C179.783 9.92305 179.541 9.91044 179.307 9.95557C179.073 10.0007 178.853 10.1022 178.666 10.2513C178.648 10.2709 178.62 10.2597 178.596 10.2492C178.217 10.0847 175.274 8.84221 174.853 8.66371ZM183.616 6.09051L186.291 8.76311L185.647 12.7517V12.7622C185.646 12.7713 185.644 12.7803 185.641 12.7888C185.634 12.8028 185.62 12.8056 185.606 12.8098C185.468 12.8515 185.338 12.9161 185.222 13.0009C185.217 13.0045 185.212 13.0085 185.208 13.0128C185.2 13.0212 185.193 13.0289 185.18 13.0303C185.17 13.0306 185.16 13.029 185.15 13.0254L181.073 11.295L181.066 11.2915C181.04 11.281 181.009 11.2684 181.009 11.2418C180.985 11.0149 180.911 10.7961 180.792 10.6013C180.772 10.5691 180.75 10.5355 180.767 10.5026L183.616 6.09051ZM180.861 12.1147L184.683 13.7317C184.704 13.7415 184.727 13.7506 184.736 13.7723C184.739 13.7854 184.739 13.7992 184.736 13.8122C184.725 13.8682 184.715 13.9319 184.715 13.9963V14.1034C184.715 14.13 184.687 14.1412 184.662 14.1517L184.654 14.1545C184.049 14.4128 176.155 17.7756 176.143 17.7756C176.131 17.7756 176.119 17.7756 176.107 17.7637C176.086 17.7427 176.107 17.7133 176.126 17.6867C176.129 17.6821 176.132 17.6774 176.136 17.6727L179.276 12.8147L179.282 12.8063C179.3 12.7769 179.321 12.744 179.355 12.744L179.386 12.7489C179.458 12.7587 179.521 12.7678 179.584 12.7678C180.061 12.7678 180.502 12.5361 180.769 12.1399C180.775 12.1293 180.783 12.1199 180.792 12.1119C180.811 12.0979 180.839 12.1049 180.861 12.1147ZM176.485 18.5442L185.089 14.8783C185.089 14.8783 185.102 14.8783 185.113 14.8902C185.16 14.9371 185.2 14.9686 185.239 14.998L185.258 15.0099C185.275 15.0197 185.293 15.0309 185.294 15.0491C185.294 15.0561 185.294 15.0603 185.293 15.0666L184.556 19.59L184.553 19.6082C184.548 19.6432 184.543 19.6831 184.51 19.6831C184.314 19.6964 184.123 19.7573 183.956 19.8606C183.788 19.9639 183.648 20.1065 183.548 20.276L183.545 20.2816C183.535 20.2977 183.526 20.3131 183.51 20.3215C183.495 20.3285 183.476 20.3257 183.461 20.3222L176.599 18.9082C176.592 18.9068 176.492 18.5449 176.485 18.5442Z" fill="#B5C0F8"/>
</g>
<g style="mix-blend-mode:luminosity">
<path d="M329.347 15.6747C329.347 16.3253 329.418 16.8528 329.543 17.2396C329.685 17.6264 329.862 18.0484 330.111 18.5055C330.2 18.6462 330.236 18.7868 330.236 18.9099C330.236 19.0857 330.129 19.2616 329.898 19.4374L328.779 20.1758C328.619 20.2813 328.459 20.3341 328.317 20.3341C328.139 20.3341 327.962 20.2462 327.784 20.0879C327.536 19.8242 327.322 19.5429 327.145 19.2616C326.967 18.9627 326.789 18.6286 326.594 18.2242C325.209 19.8418 323.468 20.6506 321.372 20.6506C319.88 20.6506 318.689 20.2286 317.819 19.3846C316.949 18.5407 316.505 17.4154 316.505 16.0088C316.505 14.5143 317.037 13.3011 318.121 12.3868C319.205 11.4725 320.643 11.0154 322.473 11.0154C323.077 11.0154 323.699 11.0681 324.356 11.1561C325.013 11.244 325.688 11.3846 326.399 11.5429V10.2594C326.399 8.92309 326.114 7.99122 325.564 7.44617C324.995 6.90111 324.036 6.63738 322.668 6.63738C322.047 6.63738 321.407 6.70771 320.75 6.86595C320.093 7.02419 319.453 7.2176 318.832 7.46375C318.547 7.58683 318.334 7.65716 318.21 7.69232C318.086 7.72749 317.997 7.74507 317.926 7.74507C317.677 7.74507 317.553 7.56924 317.553 7.20001V6.33848C317.553 6.05716 317.588 5.84617 317.677 5.72309C317.766 5.60001 317.926 5.47694 318.174 5.35386C318.796 5.03738 319.542 4.77364 320.412 4.56265C321.283 4.33408 322.207 4.22859 323.184 4.22859C325.297 4.22859 326.843 4.70331 327.837 5.65276C328.814 6.60221 329.312 8.04397 329.312 9.97804V15.6747H329.347ZM322.136 18.3473C322.722 18.3473 323.326 18.2418 323.965 18.0308C324.605 17.8198 325.173 17.433 325.653 16.9055C325.937 16.5714 326.15 16.2022 326.257 15.7802C326.363 15.3583 326.434 14.8484 326.434 14.2506V13.5121C325.919 13.389 325.368 13.2835 324.8 13.2132C324.232 13.1429 323.681 13.1077 323.13 13.1077C321.94 13.1077 321.07 13.3363 320.484 13.811C319.897 14.2857 319.613 14.9539 319.613 15.833C319.613 16.6594 319.826 17.2747 320.27 17.6967C320.697 18.1363 321.318 18.3473 322.136 18.3473ZM336.399 20.2462C336.08 20.2462 335.866 20.1934 335.724 20.0703C335.582 19.9648 335.458 19.7187 335.351 19.3846L331.177 5.79342C331.07 5.44177 331.017 5.2132 331.017 5.09012C331.017 4.8088 331.159 4.65056 331.443 4.65056H333.184C333.522 4.65056 333.753 4.70331 333.877 4.82639C334.019 4.93188 334.126 5.17804 334.232 5.5121L337.216 17.1517L339.987 5.5121C340.076 5.16045 340.183 4.93188 340.325 4.82639C340.467 4.72089 340.716 4.65056 341.036 4.65056H342.457C342.794 4.65056 343.025 4.70331 343.167 4.82639C343.309 4.93188 343.434 5.17804 343.505 5.5121L346.311 17.2923L349.384 5.5121C349.491 5.16045 349.615 4.93188 349.739 4.82639C349.882 4.72089 350.112 4.65056 350.432 4.65056H352.084C352.368 4.65056 352.528 4.79122 352.528 5.09012C352.528 5.17804 352.511 5.26595 352.493 5.37144C352.475 5.47694 352.439 5.6176 352.368 5.811L348.087 19.4022C347.981 19.7539 347.857 19.9824 347.714 20.0879C347.572 20.1934 347.341 20.2638 347.039 20.2638H345.512C345.174 20.2638 344.943 20.211 344.801 20.0879C344.659 19.9648 344.535 19.7363 344.464 19.3846L341.711 8.04397L338.975 19.367C338.886 19.7187 338.78 19.9473 338.637 20.0703C338.495 20.1934 338.247 20.2462 337.927 20.2462H336.399ZM359.225 20.7209C358.301 20.7209 357.378 20.6154 356.489 20.4044C355.601 20.1934 354.909 19.9648 354.447 19.7011C354.162 19.5429 353.967 19.367 353.896 19.2088C353.825 19.0506 353.789 18.8747 353.789 18.7165V17.8198C353.789 17.4506 353.932 17.2747 354.198 17.2747C354.305 17.2747 354.411 17.2923 354.518 17.3275C354.624 17.3627 354.784 17.433 354.962 17.5033C355.566 17.767 356.223 17.978 356.916 18.1187C357.626 18.2594 358.319 18.3297 359.03 18.3297C360.149 18.3297 361.019 18.1363 361.623 17.7495C362.227 17.3626 362.547 16.8 362.547 16.0791C362.547 15.5868 362.387 15.1824 362.067 14.8484C361.747 14.5143 361.143 14.2154 360.273 13.9341L357.697 13.1429C356.401 12.7385 355.441 12.1407 354.855 11.3495C354.269 10.5758 353.967 9.7143 353.967 8.80001C353.967 8.06155 354.127 7.411 354.447 6.84837C354.766 6.28573 355.193 5.79342 355.726 5.40661C356.259 5.00221 356.862 4.70331 357.573 4.49232C358.284 4.28133 359.03 4.19342 359.811 4.19342C360.202 4.19342 360.611 4.211 361.001 4.26375C361.41 4.3165 361.783 4.38683 362.156 4.45716C362.511 4.54507 362.849 4.63298 363.168 4.73848C363.488 4.84397 363.737 4.94946 363.914 5.05496C364.163 5.19562 364.341 5.33628 364.447 5.49452C364.554 5.63518 364.607 5.82859 364.607 6.07474V6.90111C364.607 7.27034 364.465 7.46375 364.199 7.46375C364.057 7.46375 363.826 7.39342 363.524 7.25276C362.511 6.79562 361.374 6.56705 360.113 6.56705C359.101 6.56705 358.301 6.72529 357.751 7.05935C357.2 7.39342 356.916 7.90331 356.916 8.62419C356.916 9.1165 357.093 9.53848 357.449 9.87254C357.804 10.2066 358.461 10.5407 359.403 10.8396L361.925 11.6308C363.204 12.0352 364.128 12.5978 364.678 13.3187C365.229 14.0396 365.495 14.8659 365.495 15.7802C365.495 16.5363 365.336 17.222 365.034 17.8198C364.714 18.4176 364.287 18.9451 363.737 19.367C363.186 19.8066 362.529 20.1231 361.765 20.3517C360.966 20.5978 360.131 20.7209 359.225 20.7209Z" fill="#B5C0F8"/>
<path fill-rule="evenodd" clip-rule="evenodd" d="M362.582 29.2659C356.738 33.5384 348.247 35.8066 340.947 35.8066C330.715 35.8066 321.496 32.0615 314.533 25.8373C313.982 25.345 314.48 24.6769 315.137 25.0637C322.668 29.389 331.959 32.0088 341.568 32.0088C348.052 32.0088 355.175 30.6725 361.73 27.9296C362.707 27.4901 363.541 28.5626 362.582 29.2659Z" fill="#B5C0F8"/>
<path fill-rule="evenodd" clip-rule="evenodd" d="M365.016 26.5231C364.27 25.5736 360.078 26.0659 358.177 26.2945C357.609 26.3648 357.52 25.8725 358.035 25.5033C361.374 23.1824 366.863 23.8505 367.503 24.6242C368.142 25.4154 367.325 30.8483 364.199 33.4505C363.719 33.8549 363.257 33.6439 363.47 33.1165C364.181 31.3758 365.762 27.4549 365.016 26.5231Z" fill="#B5C0F8"/>
</g>
<g style="mix-blend-mode:luminosity">
<path d="M773.27 25.7711C773.174 25.7717 773.079 25.7535 772.99 25.7178C772.901 25.682 772.82 25.6293 772.753 25.5627C772.685 25.4961 772.631 25.417 772.594 25.3299C772.558 25.2428 772.539 25.1494 772.54 25.0553C772.54 24.6682 772.863 24.3395 773.27 24.3395C773.665 24.3395 774 24.6564 774 25.0553C773.997 25.2441 773.919 25.4244 773.783 25.558C773.646 25.6915 773.463 25.7679 773.27 25.7711ZM773.27 24.4805C773.115 24.4809 772.966 24.5416 772.856 24.6493C772.746 24.757 772.684 24.903 772.684 25.0553C772.684 25.2076 772.746 25.3536 772.856 25.4613C772.966 25.569 773.115 25.6297 773.27 25.6301C773.425 25.6297 773.574 25.569 773.684 25.4613C773.794 25.3536 773.856 25.2076 773.856 25.0553C773.856 24.903 773.794 24.757 773.684 24.6493C773.574 24.5416 773.425 24.4809 773.27 24.4805ZM773.641 25.4308H773.473L773.329 25.1607H773.138V25.4308H772.982V24.6445H773.365C773.533 24.6445 773.641 24.7499 773.641 24.9028C773.642 24.9542 773.626 25.0046 773.596 25.0467C773.566 25.0888 773.523 25.1206 773.473 25.1373L773.641 25.4338L773.641 25.4308ZM773.354 25.02C773.413 25.02 773.473 24.9848 773.473 24.9028C773.473 24.8089 773.426 24.7855 773.354 24.7855H773.114V25.02H773.354ZM702.335 30.8516H697.229V24.269H699.096V29.2556H702.339L702.335 30.8516ZM704.262 27.5779V27.5549C704.262 25.6657 705.817 24.129 707.888 24.129C709.958 24.129 711.49 25.6426 711.49 27.5318V27.5549C711.49 29.444 709.934 30.9807 707.864 30.9807C705.794 30.9807 704.262 29.4671 704.262 27.5779ZM709.599 27.5779V27.5549C709.599 26.6045 708.905 25.7826 707.875 25.7826C706.858 25.7826 706.176 26.5923 706.176 27.5427V27.5657C706.176 28.5161 706.87 29.338 707.888 29.338C708.916 29.338 709.599 28.5283 709.599 27.5779ZM713.774 27.965V24.269H715.665V27.9297C715.665 28.8801 716.156 29.3264 716.898 29.3264C717.64 29.3264 718.131 28.8923 718.131 27.9772V24.269H720.022V27.9179C720.022 30.0416 718.789 30.9682 716.875 30.9682C714.972 30.9682 713.775 30.0294 713.775 27.964L713.774 27.965ZM722.869 24.268H725.454C727.847 24.268 729.247 25.6173 729.247 27.5183V27.5413C729.247 29.4421 727.835 30.8503 725.418 30.8503H722.869V24.269L722.869 24.268ZM725.489 29.2312C726.602 29.2312 727.344 28.6327 727.344 27.5651V27.542C727.344 26.4859 726.602 25.8758 725.489 25.8758H724.735V29.22H725.489V29.2312ZM733.806 26.9902H736.989V28.5039H733.806V30.8506H731.951V24.269H737.324V25.8646H733.806L733.806 26.9902ZM745.018 30.8509H739.912V24.269H741.766V29.2556H745.021L745.018 30.8509ZM749.876 24.2219H751.671L754.531 30.8513H752.532L752.042 29.6779H749.457L748.978 30.8513H747.028L749.876 24.2219ZM751.516 28.2581L750.774 26.396L750.02 28.2618H751.516V28.2581ZM756.924 24.269H760.096C761.125 24.269 761.831 24.5272 762.285 24.9848C762.68 25.3603 762.883 25.8643 762.883 26.5218V26.5449C762.883 27.5539 762.332 28.2229 761.507 28.5632L763.111 30.8631H760.957L759.604 28.8685H758.791V30.8631H756.924V24.269H756.924ZM760.015 27.4254C760.649 27.4254 761.008 27.1204 761.008 26.6513V26.6282C761.008 26.112 760.625 25.8541 760.003 25.8541H758.782V27.4264H760.015L760.015 27.4254ZM767.41 26.8153H770.629V28.2581H767.41V29.3024H771.012V30.8513H765.567V24.269H770.964V25.8179H767.41V26.8153ZM693.157 28.3527C692.894 28.9275 692.344 29.3383 691.625 29.3383C690.608 29.3383 689.914 28.5049 689.914 27.5661V27.543C689.914 26.5926 690.596 25.7829 691.613 25.7829C692.379 25.7829 692.965 26.2408 693.205 26.8743H695.167C694.856 25.302 693.444 24.1402 691.625 24.1402C689.555 24.1395 688 25.6772 688 27.5661V27.5891C688 29.4783 689.532 30.9919 691.602 30.9919C693.373 30.9919 694.761 29.8653 695.12 28.3632L693.157 28.3514V28.3527Z" fill="#B5C0F8"/>
<path d="M741.74 21.101H768.759V13.7673L763.626 10.881L762.741 10.5055L741.74 10.6462L741.74 21.101Z" fill="#B5C0F8"/>
<path d="M759.414 20.1388C759.665 19.2939 759.569 18.5194 759.15 17.9449C758.767 17.4169 758.121 17.1115 757.343 17.0766L742.613 16.8888C742.568 16.8892 742.524 16.8786 742.484 16.8582C742.444 16.8377 742.41 16.808 742.385 16.7716C742.338 16.7011 742.325 16.6069 742.349 16.5133C742.397 16.3726 742.541 16.2669 742.696 16.255L757.558 16.0673C759.317 15.9849 761.232 14.5889 761.902 12.8753L762.752 10.7012C762.788 10.6073 762.8 10.5134 762.775 10.4195C761.819 6.1757 757.954 3.00775 753.335 3.00775C749.075 3.00775 745.461 5.70662 744.169 9.4494C743.331 8.83933 742.266 8.51057 741.117 8.61599C739.072 8.81561 737.432 10.4228 737.229 12.4293C737.181 12.9454 737.217 13.4504 737.336 13.9195C733.998 14.0134 731.33 16.6886 731.33 19.9856C731.33 20.2821 731.353 20.572 731.389 20.8652C731.413 21.0058 731.533 21.1116 731.677 21.1116H758.863C759.019 21.1116 759.166 21.0062 759.21 20.8533L759.414 20.1375L759.414 20.1388Z" fill="#B5C0F8"/>
<path d="M764.104 10.8576L763.698 10.8695C763.602 10.8695 763.518 10.94 763.483 11.0342L762.912 12.9942C762.66 13.8391 762.756 14.6136 763.175 15.1881C763.558 15.7161 764.204 16.0215 764.982 16.0564L768.117 16.2441C768.162 16.2438 768.206 16.2543 768.246 16.2748C768.286 16.2953 768.32 16.325 768.345 16.3614C768.393 16.4319 768.405 16.5373 768.381 16.6197C768.333 16.7603 768.189 16.8661 768.034 16.8779L764.767 17.0657C762.996 17.1481 761.094 18.5441 760.423 20.2577L760.184 20.8562C760.137 20.9735 760.22 21.0908 760.352 21.0908H771.576C771.708 21.0908 771.827 21.0084 771.863 20.88C772.055 20.1994 772.165 19.4833 772.165 18.7444C772.165 14.4027 768.552 10.8593 764.112 10.8593" fill="#B5C0F8"/>
</g>
<g style="mix-blend-mode:luminosity">
<path d="M433.312 31.2125H433.175L433.038 31.075V30.25V26.8125C433.038 25.85 432.9 25.025 432.487 24.3375C435.65 23.7875 439.088 22.1375 439.088 15.95C439.088 14.3 438.538 12.7875 437.575 11.55C437.85 10.725 437.987 9.21247 437.3 7.28748L436.888 6.87498C436.888 6.87498 436.613 6.73748 436.338 6.73748C435.513 6.73748 434.275 7.01248 432.212 8.38748C431.112 8.24998 429.875 7.97498 428.5 7.97498C427.125 7.97498 425.887 8.11248 424.65 8.38748C422.725 7.14998 421.35 6.87498 420.525 6.87498C420.25 6.87498 420.113 7.01248 419.975 7.01248C419.838 7.01248 419.562 7.28748 419.562 7.42498C418.875 9.34998 419.013 10.8625 419.288 11.6875C418.325 12.925 417.775 14.4375 417.775 16.0875C417.775 22.1375 421.35 23.7875 424.375 24.475C424.238 24.75 424.1 25.1625 423.962 25.575C423.688 25.7125 423.275 25.85 422.725 25.85C422.175 25.85 421.625 25.7125 421.212 25.3L421.075 25.1625C420.938 25.025 420.938 24.8875 420.8 24.8875L420.663 24.75L420.525 24.6125C420.525 24.475 419.425 22.825 417.5 22.6875C416.812 22.6875 416.263 22.9625 416.125 23.375C415.85 24.0625 416.675 24.6125 417.088 24.8875C417.088 24.8875 417.912 25.3 418.462 26.8125C418.737 27.775 419.975 29.5625 422.863 29.5625H423.825V31.4875L423.688 31.625C423.688 31.625 423.55 31.625 423.688 31.625C417.5 29.15 413.375 23.375 413.375 16.9125C413.375 8.52498 420.113 1.78748 428.5 1.78748C436.888 1.78748 443.625 8.52498 443.625 16.9125C443.625 23.375 439.5 29.15 433.312 31.2125Z" fill="#B5C0F8"/>
</g>
<g style="mix-blend-mode:luminosity" clip-path="url(#clip0)">
<path d="M502.072 30.0013V24.9607C507.445 24.9607 511.578 19.663 509.537 14.0567C508.762 11.9736 507.109 10.3277 505.017 9.55616C499.385 7.52451 494.063 11.6392 494.063 16.9884L489 17.0141C489 8.50176 497.267 1.86674 506.231 4.64419C510.157 5.85289 513.257 8.96466 514.472 12.8479C517.262 21.7718 510.622 30.0013 502.072 30.0013Z" fill="#B5C0F8"/>
<path fill-rule="evenodd" clip-rule="evenodd" d="M502.072 24.9852H497.034V19.9703H502.072V24.9852Z" fill="#B5C0F8"/>
<path fill-rule="evenodd" clip-rule="evenodd" d="M497.034 28.8427H493.159V24.9852H497.034V28.8427Z" fill="#B5C0F8"/>
<path fill-rule="evenodd" clip-rule="evenodd" d="M493.159 24.9852H489.904V21.7448H493.159V24.9852Z" fill="#B5C0F8"/>
<path d="M535.5 11.5094C534.002 10.4807 532.142 9.94067 529.972 9.94067H525.244V24.8823H529.972C532.142 24.8823 534.002 24.3423 535.5 23.2364C536.327 22.6706 536.972 21.8477 537.412 20.8447C537.851 19.8418 538.083 18.6588 538.083 17.3215C538.083 16.0099 537.851 14.8269 537.412 13.824C536.972 12.8467 536.327 12.0752 535.5 11.5094ZM528.008 12.4867H529.507C531.16 12.4867 532.529 12.821 533.562 13.4382C534.699 14.1326 535.293 15.4441 535.293 17.3215C535.293 19.276 534.699 20.639 533.562 21.3848C532.581 22.0277 531.212 22.362 529.532 22.362H528.008V12.4867Z" fill="#B5C0F8"/>
<path d="M541.39 9.78638C540.925 9.78638 540.538 9.94068 540.228 10.2493C539.917 10.5579 539.737 10.9436 539.737 11.3808C539.737 11.8437 539.892 12.2295 540.228 12.5381C540.538 12.8467 540.925 13.0267 541.39 13.0267C541.855 13.0267 542.243 12.8724 542.553 12.5381C542.863 12.2295 543.043 11.818 543.043 11.3808C543.043 10.9179 542.888 10.5322 542.553 10.2493C542.243 9.94068 541.829 9.78638 541.39 9.78638Z" fill="#B5C0F8"/>
<path d="M542.682 14.3897H540.021V24.9337H542.682V14.3897Z" fill="#B5C0F8"/>
<path d="M552.369 15.2641C551.568 14.544 550.664 14.1326 549.708 14.1326C548.236 14.1326 547.022 14.6469 546.066 15.6242C545.11 16.6014 544.645 17.8873 544.645 19.4046C544.645 20.8962 545.11 22.1563 546.066 23.185C547.022 24.1622 548.236 24.6766 549.708 24.6766C550.742 24.6766 551.62 24.3937 552.343 23.8279V24.0594C552.343 24.9338 552.111 25.6024 551.646 26.091C551.181 26.5539 550.535 26.7854 549.734 26.7854C548.494 26.7854 547.745 26.2968 546.789 25.0366L544.981 26.7597L545.032 26.8368C545.42 27.3769 546.014 27.9169 546.815 28.4313C547.616 28.9456 548.597 29.2028 549.786 29.2028C551.362 29.2028 552.653 28.7142 553.583 27.7626C554.539 26.8111 555.004 25.5252 555.004 23.9308V14.3897H552.395V15.2641H552.369ZM551.672 21.4877C551.207 22.002 550.612 22.2592 549.837 22.2592C549.062 22.2592 548.468 22.002 548.029 21.4877C547.564 20.9733 547.332 20.279 547.332 19.4303C547.332 18.5816 547.564 17.8615 548.029 17.3472C548.494 16.8329 549.088 16.55 549.837 16.55C550.612 16.55 551.207 16.8071 551.672 17.3472C552.137 17.8615 552.369 18.5816 552.369 19.4303C552.369 20.279 552.111 20.9733 551.672 21.4877Z" fill="#B5C0F8"/>
<path d="M559.912 14.3897H557.252V24.9337H559.912V14.3897Z" fill="#B5C0F8"/>
<path d="M558.621 9.78638C558.156 9.78638 557.768 9.94068 557.458 10.2493C557.148 10.5579 556.967 10.9436 556.967 11.3808C556.967 11.8437 557.122 12.2295 557.458 12.5381C557.768 12.8467 558.156 13.0267 558.621 13.0267C559.086 13.0267 559.473 12.8724 559.783 12.5381C560.093 12.2295 560.274 11.818 560.274 11.3808C560.274 10.9179 560.119 10.5322 559.783 10.2493C559.473 9.94068 559.06 9.78638 558.621 9.78638Z" fill="#B5C0F8"/>
<path d="M565.751 11.5352H563.142V14.3898H561.618V16.8072H563.142V21.1791C563.142 22.5421 563.426 23.5193 563.968 24.0851C564.511 24.6509 565.467 24.9338 566.836 24.9338C567.275 24.9338 567.714 24.9081 568.128 24.8823H568.257V22.4649L567.353 22.5164C566.707 22.5164 566.293 22.4135 566.087 22.182C565.88 21.9506 565.777 21.4877 565.777 20.7933V16.8072H568.257V14.3898H565.777V11.5352H565.751Z" fill="#B5C0F8"/>
<path d="M583.369 9.96637H580.708V24.908H583.369V9.96637Z" fill="#B5C0F8"/>
<path d="M610.262 21.1533C609.797 21.6934 609.306 22.1563 608.918 22.3878C608.557 22.6192 608.092 22.7478 607.549 22.7478C606.774 22.7478 606.128 22.4649 605.612 21.8734C605.095 21.2819 604.837 20.5361 604.837 19.636C604.837 18.7359 605.095 17.9901 605.586 17.4244C606.102 16.8329 606.723 16.55 607.498 16.55C608.35 16.55 609.254 17.09 610.029 17.9901L611.786 16.3185C610.649 14.8269 609.177 14.1326 607.42 14.1326C605.947 14.1326 604.682 14.6726 603.648 15.7013C602.615 16.73 602.098 18.0673 602.098 19.636C602.098 21.2048 602.615 22.5163 603.648 23.5707C604.682 24.6251 605.947 25.1395 607.42 25.1395C609.358 25.1395 610.908 24.3165 611.941 22.7992L610.262 21.1533Z" fill="#B5C0F8"/>
<path d="M621.189 15.8556C620.802 15.3413 620.285 14.9041 619.665 14.5955C619.019 14.2869 618.296 14.1326 617.469 14.1326C615.971 14.1326 614.757 14.6726 613.853 15.7527C612.974 16.8329 612.509 18.1444 612.509 19.7132C612.509 21.3076 613 22.6192 613.982 23.6479C614.938 24.6509 616.255 25.1652 617.831 25.1652C619.613 25.1652 621.112 24.4451 622.197 23.005L622.248 22.9278L620.518 21.2562C620.363 21.4619 620.13 21.6677 619.923 21.8734C619.665 22.1306 619.407 22.3106 619.148 22.4392C618.761 22.6449 618.296 22.7221 617.805 22.7221C617.056 22.7221 616.462 22.5163 615.997 22.0792C615.558 21.6934 615.299 21.1533 615.248 20.4847H622.3L622.326 19.5074C622.326 18.8131 622.223 18.1702 622.042 17.5529C621.861 16.9615 621.577 16.37 621.189 15.8556ZM615.377 18.3245C615.506 17.8101 615.738 17.3986 616.074 17.0643C616.436 16.7043 616.901 16.5243 617.469 16.5243C618.115 16.5243 618.606 16.7043 618.942 17.0643C619.252 17.3986 619.433 17.8101 619.484 18.2987H615.377V18.3245Z" fill="#B5C0F8"/>
<path d="M631.419 15.1613C630.618 14.4669 629.508 14.1326 628.113 14.1326C627.234 14.1326 626.408 14.3383 625.658 14.6983C624.961 15.0584 624.289 15.6242 623.85 16.3957L623.876 16.4214L625.581 18.0416C626.278 16.9357 627.053 16.55 628.087 16.55C628.655 16.55 629.094 16.7043 629.456 16.9872C629.818 17.2701 629.973 17.6558 629.973 18.1187V18.6331C629.301 18.4273 628.655 18.3245 628.009 18.3245C626.692 18.3245 625.607 18.6331 624.806 19.2503C624.005 19.8675 623.592 20.7676 623.592 21.8734C623.592 22.8507 623.928 23.6736 624.625 24.2651C625.323 24.8309 626.175 25.1395 627.183 25.1395C628.19 25.1395 629.146 24.728 629.998 24.0337V24.908H632.608V18.1444C632.659 16.8586 632.246 15.8556 631.419 15.1613ZM626.692 20.8962C627.002 20.6904 627.415 20.5876 627.958 20.5876C628.603 20.5876 629.275 20.7161 629.973 20.9733V22.002C629.404 22.5421 628.629 22.7992 627.673 22.7992C627.208 22.7992 626.847 22.6964 626.614 22.4906C626.382 22.2849 626.253 22.0534 626.253 21.7191C626.253 21.3591 626.408 21.1019 626.692 20.8962Z" fill="#B5C0F8"/>
<path d="M642.889 15.367C642.14 14.544 641.107 14.1326 639.789 14.1326C638.73 14.1326 637.877 14.4412 637.232 15.0327V14.3897H634.622V24.9338H637.283V19.096C637.283 18.2987 637.464 17.6558 637.852 17.2186C638.239 16.7557 638.73 16.55 639.427 16.55C640.022 16.55 640.487 16.7557 640.823 17.1415C641.158 17.5529 641.339 18.093 641.339 18.7874V24.8823H644V18.8131C644 17.3472 643.638 16.1899 642.889 15.367Z" fill="#B5C0F8"/>
<path d="M577.376 15.1613C576.575 14.4669 575.464 14.1326 574.069 14.1326C573.191 14.1326 572.364 14.3383 571.615 14.6983C570.917 15.0584 570.246 15.6242 569.807 16.3957L569.832 16.4214L571.537 18.0416C572.235 16.9357 573.01 16.55 574.043 16.55C574.612 16.55 575.051 16.7043 575.412 16.9872C575.774 17.2701 575.929 17.6558 575.929 18.1187V18.6331C575.257 18.4273 574.612 18.3245 573.966 18.3245C572.648 18.3245 571.563 18.6331 570.762 19.2503C569.962 19.8675 569.548 20.7676 569.548 21.8734C569.548 22.8507 569.884 23.6736 570.582 24.2651C571.279 24.8309 572.132 25.1395 573.139 25.1395C574.147 25.1395 575.102 24.728 575.955 24.0337V24.908H578.564V18.1444C578.59 16.8586 578.177 15.8556 577.376 15.1613ZM572.648 20.8962C572.958 20.6904 573.372 20.5876 573.914 20.5876C574.56 20.5876 575.232 20.7161 575.929 20.9733V22.002C575.361 22.5421 574.586 22.7992 573.63 22.7992C573.165 22.7992 572.803 22.6964 572.571 22.4906C572.338 22.2849 572.209 22.0534 572.209 21.7191C572.209 21.3591 572.338 21.1019 572.648 20.8962Z" fill="#B5C0F8"/>
<path d="M593.031 25.1395C588.768 25.1395 585.281 21.6934 585.281 17.4244C585.281 13.1553 588.742 9.70923 593.031 9.70923C597.319 9.70923 600.781 13.1553 600.781 17.4244C600.781 21.6934 597.293 25.1395 593.031 25.1395ZM593.031 12.4352C590.267 12.4352 588.019 14.6726 588.019 17.4244C588.019 20.1761 590.267 22.4135 593.031 22.4135C595.795 22.4135 598.042 20.1761 598.042 17.4244C598.042 14.6726 595.795 12.4352 593.031 12.4352Z" fill="#B5C0F8"/>
</g>
<g style="mix-blend-mode:luminosity">
<path d="M843.302 5.37639C840.307 3.51057 836.364 3.95509 832.847 6.15826C829.341 3.95509 825.395 3.51057 822.403 5.37639C817.671 8.32479 817.095 15.9183 821.119 22.3376C824.085 27.0704 828.724 29.8434 832.853 29.7923C836.982 29.8435 841.62 27.0704 844.586 22.3377C848.605 15.9183 848.035 8.32487 843.302 5.37639H843.302ZM823.295 20.9822C822.465 19.6708 821.839 18.2419 821.438 16.7439C821.082 15.4436 820.945 14.0932 821.035 12.7482C821.215 10.3757 822.183 8.5282 823.762 7.5454C825.34 6.5626 827.426 6.50292 829.648 7.38218C829.982 7.51492 830.312 7.66844 830.639 7.83768C829.404 8.96016 828.331 10.247 827.448 11.6618C825.005 15.559 824.26 19.8958 825.113 23.3534C824.433 22.6222 823.824 21.8282 823.295 20.9822ZM844.269 16.7428C843.867 18.2406 843.241 19.6694 842.412 20.981C841.882 21.8283 841.273 22.6238 840.594 23.3571C841.356 20.2576 840.838 16.4602 838.969 12.8992C838.939 12.8405 838.898 12.7888 838.846 12.7473C838.795 12.7057 838.736 12.6754 838.672 12.6582C838.609 12.641 838.542 12.6372 838.477 12.6473C838.412 12.6573 838.349 12.6809 838.294 12.7165L832.467 16.3458C832.414 16.3788 832.367 16.422 832.331 16.4729C832.295 16.5237 832.269 16.5812 832.255 16.6421C832.241 16.7029 832.239 16.7659 832.249 16.8275C832.259 16.8891 832.282 16.9481 832.315 17.001L833.17 18.3638C833.203 18.4168 833.247 18.4627 833.297 18.4989C833.348 18.5352 833.406 18.5611 833.467 18.5751C833.528 18.5891 833.591 18.591 833.653 18.5807C833.714 18.5703 833.773 18.5479 833.826 18.5148L837.603 16.1619C837.726 16.5272 837.848 16.8926 837.939 17.258C838.296 18.5566 838.432 19.9054 838.344 21.2489C838.164 23.6202 837.196 25.4676 835.617 26.4517C834.803 26.9479 833.87 27.2171 832.916 27.2311H832.795C831.841 27.2174 830.908 26.9482 830.094 26.4517C828.515 25.4676 827.546 23.6201 827.367 21.2489C827.278 19.9039 827.414 18.5535 827.77 17.253C828.588 14.2444 830.281 11.5442 832.634 9.49159C833.649 8.60346 834.805 7.88976 836.055 7.37969C838.271 6.50036 840.361 6.55884 841.94 7.54292C843.52 8.52692 844.487 10.3732 844.667 12.7457C844.757 14.0908 844.623 15.4416 844.269 16.7427L844.269 16.7428ZM874.347 13.9088C871.283 13.9088 868.807 16.2934 868.807 19.3271C868.807 22.3401 871.283 24.6857 874.347 24.6857C877.431 24.6857 879.908 22.3438 879.908 19.3271C879.908 16.2946 877.435 13.91 874.347 13.91V13.9088ZM874.347 21.853C872.935 21.853 871.86 20.7143 871.86 19.3064C871.86 17.8985 872.935 16.7428 874.347 16.7428C875.78 16.7428 876.855 17.9022 876.855 19.3101C876.855 20.718 875.78 21.8579 874.347 21.8579V21.853ZM886.816 9.74715H881.178C881.117 9.74605 881.057 9.75722 881 9.77999C880.944 9.80276 880.893 9.83666 880.85 9.87966C880.807 9.92266 880.773 9.97387 880.75 10.0302C880.727 10.0866 880.716 10.1469 880.718 10.2076V23.9099C880.713 23.9726 880.722 24.0356 880.743 24.0948C880.764 24.154 880.798 24.2082 880.841 24.254C880.884 24.2997 880.936 24.3361 880.994 24.3607C881.053 24.3853 881.115 24.3977 881.178 24.3971H886.816C891.327 24.3971 894.462 21.4059 894.462 17.0545C894.462 12.6763 891.327 9.74715 886.816 9.74715ZM886.949 21.5034H883.864V12.6337H886.949C889.446 12.6337 891.167 14.4958 891.167 17.0485C891.167 19.5585 889.446 21.5035 886.949 21.5035V21.5034ZM905.684 14.2035H903.564C903.447 14.2127 903.337 14.2648 903.256 14.3498C903.175 14.4347 903.128 14.5465 903.124 14.6638V15.291C902.642 14.4958 901.551 13.9099 900.192 13.9099C897.549 13.9099 895.073 15.9803 895.073 19.2869C895.073 22.5751 897.527 24.6833 900.172 24.6833C901.535 24.6833 902.648 24.0987 903.13 23.3034V23.9514C903.131 24.0675 903.178 24.1788 903.26 24.2611C903.342 24.3433 903.454 24.39 903.57 24.391H905.69C905.748 24.3923 905.806 24.3819 905.86 24.3602C905.914 24.3386 905.963 24.3063 906.004 24.2652C906.046 24.2241 906.078 24.1751 906.1 24.1211C906.121 24.0672 906.132 24.0094 906.131 23.9513V14.6639C906.132 14.6042 906.122 14.5447 906.101 14.489C906.079 14.4333 906.046 14.3825 906.005 14.3396C905.963 14.2967 905.913 14.2625 905.858 14.2392C905.803 14.2158 905.743 14.2037 905.684 14.2035V14.2035ZM900.753 21.876C899.35 21.876 898.295 20.8007 898.295 19.3088C898.295 17.8169 899.35 16.7427 900.753 16.7427C902.157 16.7427 903.211 17.8157 903.211 19.3076C903.211 20.7995 902.158 21.8748 900.753 21.8748V21.876ZM917.581 9.74722H915.461C915.402 9.74543 915.343 9.75543 915.287 9.77665C915.232 9.79787 915.181 9.82988 915.138 9.87081C915.096 9.91174 915.061 9.96077 915.038 10.015C915.014 10.0693 915.001 10.1278 915.001 10.1869V15.2496C914.512 14.4958 913.405 13.9099 912.021 13.9099C909.397 13.9099 906.964 15.9803 906.964 19.2869C906.964 22.5751 909.418 24.6833 912.063 24.6833C913.426 24.6833 914.455 24.0987 915.021 23.3034V23.9514C915.022 24.0677 915.068 24.1791 915.151 24.2615C915.233 24.3438 915.345 24.3904 915.461 24.391H917.581C917.639 24.3925 917.697 24.3821 917.751 24.3605C917.805 24.339 917.855 24.3066 917.896 24.2655C917.937 24.2244 917.97 24.1753 917.991 24.1213C918.013 24.0673 918.023 24.0094 918.022 23.9513V10.1894C918.024 10.1311 918.013 10.0729 917.992 10.0186C917.971 9.96428 917.938 9.9149 917.897 9.8735C917.856 9.8321 917.806 9.79955 917.752 9.77785C917.697 9.75615 917.639 9.74575 917.581 9.7473V9.74722ZM912.65 21.9016C911.253 21.9016 910.207 20.8153 910.207 19.3076C910.207 17.7998 911.256 16.7135 912.65 16.7135C914.044 16.7135 915.094 17.7998 915.094 19.3076C915.094 20.8153 914.049 21.9016 912.65 21.9016ZM929.475 9.74722H927.36C927.3 9.74544 927.241 9.75544 927.186 9.77665C927.13 9.79786 927.079 9.82985 927.037 9.87076C926.994 9.91168 926.959 9.96069 926.935 10.015C926.912 10.0692 926.899 10.1277 926.898 10.1869V15.2496C926.415 14.4958 925.302 13.9099 923.918 13.9099C921.294 13.9099 918.861 15.9803 918.861 19.2869C918.861 22.5751 921.316 24.6833 923.96 24.6833C925.324 24.6833 926.352 24.0987 926.919 23.3034V23.9514C926.919 24.0677 926.966 24.1792 927.049 24.2615C927.131 24.3438 927.243 24.3903 927.36 24.391H929.475C929.534 24.3925 929.592 24.3822 929.646 24.3606C929.7 24.339 929.749 24.3067 929.79 24.2655C929.831 24.2244 929.864 24.1753 929.885 24.1212C929.907 24.0672 929.917 24.0094 929.915 23.9513V10.1894C929.917 10.1311 929.907 10.073 929.886 10.0187C929.865 9.96441 929.832 9.91503 929.791 9.87361C929.75 9.8322 929.701 9.79963 929.646 9.7779C929.592 9.75618 929.534 9.74576 929.475 9.7473V9.74722ZM924.545 21.9016C923.146 21.9016 922.102 20.8153 922.102 19.3076C922.102 17.7998 923.151 16.7135 924.545 16.7135C925.939 16.7135 926.988 17.7998 926.988 19.3076C926.988 20.8153 925.946 21.9016 924.549 21.9016H924.545ZM941.081 14.9159L937.918 25.7294C937.307 27.6536 935.945 28.8046 933.826 28.8046C932.862 28.8046 931.985 28.6084 931.297 28.2163C930.896 27.9886 930.564 27.7803 930.564 27.4466C930.564 27.2396 930.631 27.1324 930.753 26.9387L931.381 26.001C931.558 25.7391 931.689 25.6539 931.88 25.6539C932.031 25.6576 932.177 25.7083 932.297 25.7988C932.692 26.0534 933.058 26.2726 933.617 26.2726C934.269 26.2726 934.767 26.0643 935.036 25.2898L935.307 24.3922H934.027C933.712 24.3922 933.539 24.2047 933.46 23.9526L930.63 14.9159C930.525 14.5602 930.621 14.2047 931.145 14.2047H933.375C933.647 14.2047 933.838 14.2972 933.958 14.6857L936.048 21.9625L938.002 14.6857C938.064 14.4349 938.233 14.2047 938.569 14.2047H940.684C941.1 14.2035 941.226 14.4958 941.081 14.9159H941.081ZM868.008 18.1323V23.9088C868.009 23.9717 867.997 24.0342 867.974 24.0926C867.95 24.1509 867.915 24.204 867.87 24.2485C867.825 24.293 867.772 24.3281 867.714 24.3518C867.655 24.3754 867.592 24.3871 867.529 24.3862H865.78C865.717 24.3873 865.654 24.3758 865.595 24.3522C865.537 24.3286 865.483 24.2935 865.439 24.2489C865.394 24.2043 865.359 24.1512 865.335 24.0928C865.311 24.0344 865.3 23.9718 865.301 23.9088V22.3925C864.191 23.7907 862.259 24.6711 860.075 24.6711C855.973 24.6711 852.767 21.5948 852.767 17.2153C852.767 12.6641 856.228 9.52688 860.6 9.52688C863.828 9.52688 866.408 10.9104 867.554 13.6933C867.586 13.7668 867.604 13.8457 867.606 13.9258C867.606 14.0574 867.519 14.1573 867.24 14.2534L865.197 15.0377C865.074 15.0887 864.936 15.0908 864.811 15.0438C864.702 14.9794 864.616 14.8816 864.567 14.7649C863.834 13.3754 862.529 12.4315 860.521 12.4315C857.916 12.4315 856.051 14.4593 856.051 17.0887C856.051 19.6377 857.639 21.7336 860.595 21.7336C862.151 21.7336 863.39 21.0029 863.968 20.2004H862.123C862.06 20.2013 861.998 20.1896 861.939 20.166C861.881 20.1423 861.827 20.1072 861.783 20.0627C861.738 20.0181 861.703 19.9651 861.679 19.9067C861.655 19.8484 861.644 19.7859 861.645 19.7229V18.1531C861.644 18.0902 861.655 18.0276 861.679 17.9693C861.703 17.9109 861.738 17.8579 861.783 17.8134C861.827 17.7689 861.881 17.7337 861.939 17.7101C861.998 17.6864 862.06 17.6747 862.123 17.6757H867.529C867.591 17.6725 867.653 17.682 867.711 17.7036C867.769 17.7251 867.822 17.7583 867.867 17.801C867.912 17.8438 867.948 17.8952 867.972 17.9522C867.996 18.0092 868.008 18.0705 868.008 18.1323H868.008ZM941.138 12.0649V11.9249C941.138 11.915 941.141 11.9055 941.148 11.8981C941.155 11.8918 941.164 11.8883 941.174 11.8883H942.067C942.071 11.8882 942.076 11.8889 942.08 11.8906C942.085 11.8923 942.089 11.8948 942.092 11.8981C942.099 11.9054 942.102 11.915 942.102 11.9249V12.0649C942.102 12.0743 942.098 12.0833 942.092 12.0904C942.089 12.0937 942.085 12.0962 942.08 12.0979C942.076 12.0996 942.071 12.1004 942.067 12.1002H941.741V12.9784C941.74 12.988 941.736 12.9971 941.729 13.0039C941.723 13.0106 941.713 13.0146 941.704 13.0149H941.535C941.531 13.0148 941.526 13.0139 941.522 13.012C941.518 13.0101 941.514 13.0074 941.511 13.0039C941.507 13.0006 941.505 12.9966 941.503 12.9922C941.501 12.9879 941.5 12.9831 941.5 12.9784V12.1002H941.174C941.169 12.1006 941.164 12.0999 941.16 12.0983C941.155 12.0967 941.151 12.0941 941.148 12.0907C941.144 12.0873 941.142 12.0833 941.14 12.0788C941.138 12.0744 941.138 12.0696 941.138 12.0649L941.138 12.0649ZM942.699 11.92L942.944 12.4839L943.188 11.92C943.192 11.91 943.199 11.9014 943.208 11.8956C943.218 11.8904 943.229 11.8879 943.241 11.8883H943.524C943.529 11.888 943.533 11.8886 943.538 11.8902C943.542 11.8918 943.546 11.8943 943.549 11.8975C943.553 11.9007 943.555 11.9046 943.557 11.9089C943.559 11.9132 943.56 11.9178 943.559 11.9225V12.9796C943.56 12.9842 943.559 12.9888 943.558 12.9932C943.556 12.9976 943.554 13.0016 943.55 13.0048C943.547 13.0082 943.543 13.0108 943.539 13.0125C943.534 13.0142 943.53 13.015 943.525 13.0149H943.366C943.362 13.015 943.357 13.0142 943.353 13.0126C943.348 13.0109 943.344 13.0083 943.341 13.0051C943.337 13.0018 943.335 12.9978 943.333 12.9934C943.331 12.9889 943.331 12.9842 943.331 12.9795V12.1818L943.068 12.7616C943.065 12.7725 943.058 12.7822 943.049 12.7895C943.039 12.7951 943.027 12.7976 943.016 12.7968H942.886C942.875 12.7974 942.864 12.7949 942.855 12.7895C942.845 12.7825 942.838 12.7727 942.835 12.7616L942.574 12.1819V12.9796C942.573 12.989 942.57 12.998 942.564 13.0051C942.557 13.0111 942.548 13.0146 942.539 13.0149H942.377C942.373 13.015 942.368 13.0141 942.364 13.0124C942.36 13.0107 942.357 13.0083 942.354 13.0051C942.35 13.0019 942.348 12.9979 942.346 12.9934C942.344 12.989 942.344 12.9843 942.344 12.9796V11.9224C942.344 11.9178 942.345 11.9132 942.346 11.9088C942.348 11.9045 942.351 11.9007 942.354 11.8974C942.357 11.8942 942.361 11.8917 942.366 11.8902C942.37 11.8886 942.375 11.888 942.379 11.8883H942.654C942.665 11.888 942.676 11.8905 942.686 11.8956C942.693 11.9023 942.697 11.9108 942.699 11.92H942.699Z" fill="#B5C0F8"/>
</g>
</g>
<defs>
<clipPath id="clip0">
<rect width="155" height="26" fill="white" transform="translate(489 4)"/>
</clipPath>
</defs>
</svg>
